<svg width="306" height="48" viewBox="0 0 306 48" fill="none" xmlns="http://www.w3.org/2000/svg">
<g clip-path="url(#clip0_0_179)">
<g clip-path="url(#clip1_0_179)">
<path d="M67.888 16L72.48 4.8H75.632L80.16 16H77.184L76.16 13.296H71.792L70.752 16H67.888ZM72.624 11.104H75.344L74 7.52L72.624 11.104ZM80.8469 16V7.536H83.4389V8.112C83.7482 7.87733 84.0949 7.696 84.4789 7.568C84.8735 7.44 85.2842 7.376 85.7109 7.376C86.7029 7.376 87.5135 7.696 88.1429 8.336C88.7722 8.976 89.0869 9.792 89.0869 10.784V16H86.4949V11.136C86.4949 10.6773 86.3509 10.3093 86.0629 10.032C85.7855 9.744 85.4175 9.6 84.9589 9.6C84.6282 9.6 84.3349 9.65867 84.0789 9.776C83.8229 9.89333 83.6095 10.0587 83.4389 10.272V16H80.8469ZM90.6281 16V7.536H93.2201V8.112C93.5295 7.87733 93.8761 7.696 94.2601 7.568C94.6548 7.44 95.0655 7.376 95.4921 7.376C96.4841 7.376 97.2948 7.696 97.9241 8.336C98.5535 8.976 98.8681 9.792 98.8681 10.784V16H96.2761V11.136C96.2761 10.6773 96.1321 10.3093 95.8441 10.032C95.5668 9.744 95.1988 9.6 94.7401 9.6C94.4095 9.6 94.1161 9.65867 93.8601 9.776C93.6041 9.89333 93.3908 10.0587 93.2201 10.272V16H90.6281ZM102.859 7.536V12.4C102.859 12.8587 102.998 13.232 103.275 13.52C103.563 13.7973 103.937 13.936 104.395 13.936C104.726 13.936 105.019 13.8773 105.275 13.76C105.531 13.6427 105.745 13.4773 105.915 13.264V7.536H108.507V16H105.915V15.424C105.606 15.6587 105.254 15.84 104.859 15.968C104.475 16.096 104.07 16.16 103.643 16.16C102.651 16.16 101.841 15.84 101.211 15.2C100.582 14.56 100.267 13.744 100.267 12.752V7.536H102.859ZM112.817 16.144C111.921 16.144 111.185 15.8987 110.609 15.408C110.033 14.9173 109.745 14.288 109.745 13.52C109.745 12.72 110.049 12.096 110.657 11.648C111.275 11.2 112.134 10.976 113.233 10.976C113.563 10.976 113.889 10.9973 114.209 11.04C114.529 11.0827 114.843 11.1413 115.153 11.216V10.8C115.153 10.3733 115.014 10.0587 114.737 9.856C114.47 9.64267 114.07 9.536 113.536 9.536C113.206 9.536 112.833 9.58933 112.417 9.696C112.001 9.80267 111.521 9.97333 110.977 10.208L110.049 8.304C110.731 7.99467 111.398 7.76533 112.049 7.616C112.71 7.456 113.361 7.376 114.001 7.376C115.174 7.376 116.086 7.65867 116.737 8.224C117.387 8.77867 117.713 9.56267 117.713 10.576V16H115.153V15.488C114.811 15.7227 114.449 15.8933 114.065 16C113.691 16.096 113.275 16.144 112.817 16.144ZM112.209 13.472C112.209 13.7387 112.326 13.9467 112.561 14.096C112.795 14.2453 113.121 14.32 113.536 14.32C113.846 14.32 114.134 14.288 114.401 14.224C114.678 14.16 114.929 14.0587 115.153 13.92V12.832C114.907 12.768 114.657 12.72 114.401 12.688C114.145 12.656 113.883 12.64 113.617 12.64C113.169 12.64 112.822 12.7147 112.577 12.864C112.331 13.0027 112.209 13.2053 112.209 13.472ZM121.845 4.24V16H119.253V4.8L121.845 4.24ZM126.694 16V4.8H132.598C133.142 4.8 133.648 4.89067 134.118 5.072C134.587 5.25333 134.987 5.50933 135.318 5.84C135.659 6.16 135.926 6.544 136.118 6.992C136.31 7.42933 136.406 7.90933 136.406 8.432C136.406 8.93333 136.31 9.40267 136.118 9.84C135.926 10.2773 135.659 10.656 135.318 10.976C134.976 11.2853 134.571 11.5307 134.102 11.712C133.643 11.8933 133.142 11.984 132.598 11.984H129.446V16H126.694ZM132.278 7.152H129.446V9.712H132.278C132.672 9.712 132.992 9.59467 133.238 9.36C133.494 9.12533 133.622 8.82133 133.622 8.448C133.622 8.064 133.494 7.75467 133.238 7.52C132.992 7.27467 132.672 7.152 132.278 7.152ZM140.283 4.24V16H137.691V4.8L140.283 4.24ZM144.582 16.144C143.686 16.144 142.95 15.8987 142.374 15.408C141.798 14.9173 141.51 14.288 141.51 13.52C141.51 12.72 141.814 12.096 142.422 11.648C143.041 11.2 143.899 10.976 144.998 10.976C145.329 10.976 145.654 10.9973 145.974 11.04C146.294 11.0827 146.609 11.1413 146.918 11.216V10.8C146.918 10.3733 146.779 10.0587 146.502 9.856C146.235 9.64267 145.835 9.536 145.302 9.536C144.971 9.536 144.598 9.58933 144.182 9.696C143.766 9.80267 143.286 9.97333 142.742 10.208L141.814 8.304C142.497 7.99467 143.163 7.76533 143.814 7.616C144.475 7.456 145.126 7.376 145.766 7.376C146.939 7.376 147.851 7.65867 148.502 8.224C149.153 8.77867 149.478 9.56267 149.478 10.576V16H146.918V15.488C146.577 15.7227 146.214 15.8933 145.83 16C145.457 16.096 145.041 16.144 144.582 16.144ZM143.974 13.472C143.974 13.7387 144.091 13.9467 144.326 14.096C144.561 14.2453 144.886 14.32 145.302 14.32C145.611 14.32 145.899 14.288 146.166 14.224C146.443 14.16 146.694 14.0587 146.918 13.92V12.832C146.673 12.768 146.422 12.72 146.166 12.688C145.91 12.656 145.649 12.64 145.382 12.64C144.934 12.64 144.587 12.7147 144.342 12.864C144.097 13.0027 143.974 13.2053 143.974 13.472ZM151.019 16V7.536H153.611V8.112C153.92 7.87733 154.267 7.696 154.651 7.568C155.045 7.44 155.456 7.376 155.883 7.376C156.875 7.376 157.685 7.696 158.315 8.336C158.944 8.976 159.259 9.792 159.259 10.784V16H156.667V11.136C156.667 10.6773 156.523 10.3093 156.235 10.032C155.957 9.744 155.589 9.6 155.131 9.6C154.8 9.6 154.507 9.65867 154.251 9.776C153.995 9.89333 153.781 10.0587 153.611 10.272V16H151.019Z" fill="#1F2E55"/>
<path d="M72.112 44.2V42.68C71.3653 42.616 70.656 42.4347 69.984 42.136C69.3227 41.8373 68.7467 41.4267 68.256 40.904L69.152 39.816C69.5573 40.2427 70.016 40.5893 70.528 40.856C71.04 41.1227 71.568 41.2933 72.112 41.368V37.992L71.424 37.848C70.368 37.6347 69.6107 37.3147 69.152 36.888C68.704 36.4613 68.48 35.8533 68.48 35.064C68.48 34.1787 68.8107 33.464 69.472 32.92C70.144 32.376 71.024 32.0933 72.112 32.072V30.856H73.024V32.104C73.6533 32.1787 74.272 32.328 74.88 32.552C75.488 32.776 76.0587 33.0693 76.592 33.432L75.856 34.648C75.3653 34.328 74.8853 34.072 74.416 33.88C73.9467 33.6773 73.4827 33.5387 73.024 33.464V36.696L73.696 36.824C74.8267 37.0587 75.632 37.3893 76.112 37.816C76.6027 38.2427 76.848 38.84 76.848 39.608C76.848 40.504 76.496 41.2347 75.792 41.8C75.0987 42.3547 74.176 42.6587 73.024 42.712V44.2H72.112ZM71.92 36.504L72.112 36.536V33.4C71.472 33.4107 70.9547 33.5547 70.56 33.832C70.1653 34.1093 69.968 34.4773 69.968 34.936C69.968 35.3947 70.1067 35.736 70.384 35.96C70.6613 36.184 71.1733 36.3653 71.92 36.504ZM73.184 38.152L73.024 38.12V41.416C73.696 41.3733 74.24 41.1973 74.656 40.888C75.0827 40.5787 75.296 40.1893 75.296 39.72C75.296 39.272 75.152 38.9413 74.864 38.728C74.576 38.504 74.016 38.312 73.184 38.152ZM78.3209 37.464L78.5929 31.8H85.4249V33.16H79.9049L79.7609 36.392C80.1235 36.264 80.4862 36.168 80.8489 36.104C81.2115 36.04 81.5902 36.008 81.9849 36.008C83.1902 36.008 84.1662 36.328 84.9129 36.968C85.6595 37.5973 86.0329 38.4187 86.0329 39.432C86.0329 40.5413 85.6382 41.4427 84.8489 42.136C84.0595 42.8187 83.0302 43.16 81.7609 43.16C80.9822 43.16 80.2462 43.032 79.5529 42.776C78.8595 42.52 78.2409 42.1467 77.6969 41.656L78.6729 40.568C79.1742 41.0053 79.6702 41.3253 80.1609 41.528C80.6515 41.72 81.1955 41.816 81.7929 41.816C82.5715 41.816 83.2009 41.6027 83.6809 41.176C84.1715 40.7493 84.4169 40.1947 84.4169 39.512C84.4169 38.8613 84.1555 38.3333 83.6329 37.928C83.1209 37.512 82.4595 37.304 81.6489 37.304C81.2542 37.304 80.8595 37.3467 80.4649 37.432C80.0809 37.5067 79.6969 37.624 79.3129 37.784L78.3209 37.464ZM90.733 31.64C91.4263 31.64 92.061 31.7733 92.637 32.04C93.2237 32.3067 93.7197 32.68 94.125 33.16C94.541 33.6293 94.861 34.2 95.085 34.872C95.3197 35.5333 95.437 36.264 95.437 37.064C95.437 37.9813 95.309 38.8187 95.053 39.576C94.797 40.3333 94.4343 40.9787 93.965 41.512C93.5063 42.0347 92.9463 42.44 92.285 42.728C91.6343 43.016 90.909 43.16 90.109 43.16C89.5757 43.16 89.0477 43.08 88.525 42.92C88.0023 42.76 87.549 42.5467 87.165 42.28L88.013 41.096C88.3437 41.32 88.6903 41.4853 89.053 41.592C89.4263 41.6987 89.8103 41.752 90.205 41.752C91.3037 41.752 92.173 41.3627 92.813 40.584C93.4637 39.8053 93.8103 38.7173 93.853 37.32C93.4583 37.7787 92.973 38.1413 92.397 38.408C91.821 38.664 91.2183 38.792 90.589 38.792C90.0237 38.792 89.501 38.7067 89.021 38.536C88.5517 38.3547 88.141 38.1147 87.789 37.816C87.4477 37.5067 87.181 37.1387 86.989 36.712C86.797 36.2853 86.701 35.8213 86.701 35.32C86.701 34.7867 86.8023 34.296 87.005 33.848C87.2077 33.4 87.485 33.016 87.837 32.696C88.1997 32.3653 88.6263 32.1093 89.117 31.928C89.6183 31.736 90.157 31.64 90.733 31.64ZM90.861 37.512C91.405 37.512 91.933 37.384 92.445 37.128C92.957 36.8613 93.3997 36.488 93.773 36.008C93.6343 35.112 93.293 34.3867 92.749 33.832C92.205 33.2773 91.549 33 90.781 33C90.0663 33 89.469 33.2187 88.989 33.656C88.5197 34.0933 88.285 34.632 88.285 35.272C88.285 35.9333 88.525 36.472 89.005 36.888C89.485 37.304 90.1037 37.512 90.861 37.512ZM97.3843 41.096C97.6616 41.096 97.8963 41.1973 98.0883 41.4C98.2909 41.592 98.3923 41.8267 98.3923 42.104C98.3923 42.3813 98.2909 42.6213 98.0883 42.824C97.8963 43.0267 97.6616 43.128 97.3843 43.128C97.1069 43.128 96.8669 43.0267 96.6643 42.824C96.4616 42.6213 96.3603 42.3813 96.3603 42.104C96.3603 41.8267 96.4616 41.592 96.6643 41.4C96.8669 41.1973 97.1069 41.096 97.3843 41.096ZM103.296 31.64C103.989 31.64 104.624 31.7733 105.2 32.04C105.786 32.3067 106.282 32.68 106.688 33.16C107.104 33.6293 107.424 34.2 107.648 34.872C107.882 35.5333 108 36.264 108 37.064C108 37.9813 107.872 38.8187 107.616 39.576C107.36 40.3333 106.997 40.9787 106.528 41.512C106.069 42.0347 105.509 42.44 104.848 42.728C104.197 43.016 103.472 43.16 102.672 43.16C102.138 43.16 101.61 43.08 101.088 42.92C100.565 42.76 100.112 42.5467 99.7275 42.28L100.576 41.096C100.906 41.32 101.253 41.4853 101.616 41.592C101.989 41.6987 102.373 41.752 102.768 41.752C103.866 41.752 104.736 41.3627 105.376 40.584C106.026 39.8053 106.373 38.7173 106.416 37.32C106.021 37.7787 105.536 38.1413 104.96 38.408C104.384 38.664 103.781 38.792 103.152 38.792C102.586 38.792 102.064 38.7067 101.584 38.536C101.114 38.3547 100.704 38.1147 100.352 37.816C100.01 37.5067 99.7435 37.1387 99.5515 36.712C99.3595 36.2853 99.2635 35.8213 99.2635 35.32C99.2635 34.7867 99.3648 34.296 99.5675 33.848C99.7702 33.4 100.048 33.016 100.4 32.696C100.762 32.3653 101.189 32.1093 101.68 31.928C102.181 31.736 102.72 31.64 103.296 31.64ZM103.424 37.512C103.968 37.512 104.496 37.384 105.008 37.128C105.52 36.8613 105.962 36.488 106.336 36.008C106.197 35.112 105.856 34.3867 105.312 33.832C104.768 33.2773 104.112 33 103.344 33C102.629 33 102.032 33.2187 101.552 33.656C101.082 34.0933 100.848 34.632 100.848 35.272C100.848 35.9333 101.088 36.472 101.568 36.888C102.048 37.304 102.666 37.512 103.424 37.512ZM113.155 31.64C113.848 31.64 114.483 31.7733 115.059 32.04C115.646 32.3067 116.142 32.68 116.547 33.16C116.963 33.6293 117.283 34.2 117.507 34.872C117.742 35.5333 117.859 36.264 117.859 37.064C117.859 37.9813 117.731 38.8187 117.475 39.576C117.219 40.3333 116.856 40.9787 116.387 41.512C115.928 42.0347 115.368 42.44 114.707 42.728C114.056 43.016 113.331 43.16 112.531 43.16C111.998 43.16 111.47 43.08 110.947 42.92C110.424 42.76 109.971 42.5467 109.587 42.28L110.435 41.096C110.766 41.32 111.112 41.4853 111.475 41.592C111.848 41.6987 112.232 41.752 112.627 41.752C113.726 41.752 114.595 41.3627 115.235 40.584C115.886 39.8053 116.232 38.7173 116.275 37.32C115.88 37.7787 115.395 38.1413 114.819 38.408C114.243 38.664 113.64 38.792 113.011 38.792C112.446 38.792 111.923 38.7067 111.443 38.536C110.974 38.3547 110.563 38.1147 110.211 37.816C109.87 37.5067 109.603 37.1387 109.411 36.712C109.219 36.2853 109.123 35.8213 109.123 35.32C109.123 34.7867 109.224 34.296 109.427 33.848C109.63 33.4 109.907 33.016 110.259 32.696C110.622 32.3653 111.048 32.1093 111.539 31.928C112.04 31.736 112.579 31.64 113.155 31.64ZM113.283 37.512C113.827 37.512 114.355 37.384 114.867 37.128C115.379 36.8613 115.822 36.488 116.195 36.008C116.056 35.112 115.715 34.3867 115.171 33.832C114.627 33.2773 113.971 33 113.203 33C112.488 33 111.891 33.2187 111.411 33.656C110.942 34.0933 110.707 34.632 110.707 35.272C110.707 35.9333 110.947 36.472 111.427 36.888C111.907 37.304 112.526 37.512 113.283 37.512ZM116.818 46.312L123.57 31.8H125.186L118.434 46.312H116.818ZM127.789 43.768L128.109 43.032L124.861 34.856H126.621L129.005 41.08L131.629 34.856H133.357L129.421 43.976C129.047 44.84 128.621 45.4587 128.141 45.832C127.661 46.216 127.047 46.408 126.301 46.408C126.13 46.408 125.97 46.3973 125.821 46.376C125.682 46.3653 125.559 46.344 125.453 46.312V44.904C125.559 44.9253 125.666 44.9413 125.773 44.952C125.89 44.9627 126.023 44.968 126.173 44.968C126.535 44.968 126.85 44.8667 127.117 44.664C127.394 44.472 127.618 44.1733 127.789 43.768ZM141.094 42.072C140.624 42.4347 140.134 42.7067 139.622 42.888C139.11 43.0587 138.55 43.144 137.942 43.144C137.344 43.144 136.784 43.0373 136.262 42.824C135.739 42.6 135.286 42.3013 134.902 41.928C134.518 41.5547 134.214 41.112 133.99 40.6C133.776 40.0773 133.67 39.5173 133.67 38.92C133.67 38.3333 133.776 37.784 133.99 37.272C134.203 36.76 134.491 36.3173 134.854 35.944C135.216 35.5707 135.648 35.2773 136.15 35.064C136.651 34.84 137.184 34.728 137.75 34.728C138.304 34.728 138.822 34.84 139.302 35.064C139.792 35.2773 140.208 35.576 140.55 35.96C140.902 36.3333 141.179 36.7813 141.382 37.304C141.584 37.8267 141.686 38.3867 141.686 38.984V39.448H135.254C135.36 40.12 135.67 40.68 136.182 41.128C136.694 41.5653 137.302 41.784 138.006 41.784C138.4 41.784 138.779 41.72 139.142 41.592C139.504 41.464 139.814 41.288 140.07 41.064L141.094 42.072ZM137.718 36.072C137.11 36.072 136.576 36.2747 136.118 36.68C135.67 37.0853 135.387 37.608 135.27 38.248H140.102C139.984 37.6293 139.702 37.112 139.254 36.696C138.816 36.28 138.304 36.072 137.718 36.072ZM145.692 43.144C144.807 43.144 144.087 42.9147 143.532 42.456C142.977 41.9973 142.7 41.4 142.7 40.664C142.7 39.896 142.993 39.2933 143.58 38.856C144.167 38.408 144.972 38.184 145.996 38.184C146.391 38.184 146.775 38.2267 147.148 38.312C147.521 38.3867 147.879 38.4933 148.22 38.632V37.768C148.22 37.192 148.049 36.76 147.708 36.472C147.367 36.184 146.876 36.04 146.236 36.04C145.863 36.04 145.473 36.0987 145.068 36.216C144.663 36.3227 144.209 36.4933 143.708 36.728L143.116 35.528C143.724 35.24 144.3 35.032 144.844 34.904C145.388 34.7653 145.927 34.696 146.46 34.696C147.516 34.696 148.332 34.952 148.908 35.464C149.495 35.9653 149.788 36.68 149.788 37.608V43H148.22V42.296C147.857 42.584 147.468 42.7973 147.052 42.936C146.636 43.0747 146.183 43.144 145.692 43.144ZM144.236 40.632C144.236 41.0267 144.401 41.3467 144.732 41.592C145.073 41.8373 145.516 41.96 146.06 41.96C146.487 41.96 146.881 41.896 147.244 41.768C147.607 41.64 147.932 41.448 148.22 41.192V39.784C147.911 39.6133 147.585 39.4907 147.244 39.416C146.903 39.3307 146.529 39.288 146.124 39.288C145.548 39.288 145.089 39.4107 144.748 39.656C144.407 39.9013 144.236 40.2267 144.236 40.632ZM151.632 43V34.856H153.232V35.896C153.477 35.5013 153.792 35.2027 154.176 35C154.56 34.7867 154.992 34.68 155.472 34.68C155.642 34.68 155.792 34.6907 155.92 34.712C156.048 34.7333 156.17 34.7653 156.288 34.808V36.248C156.138 36.1947 155.984 36.152 155.824 36.12C155.664 36.088 155.504 36.072 155.344 36.072C154.874 36.072 154.453 36.2 154.08 36.456C153.717 36.7013 153.434 37.0693 153.232 37.56V43H151.632Z" fill="#717FA6"/>
</g>
<path d="M259.782 27.264C260.295 27.264 260.776 27.1567 261.224 26.942C261.672 26.7273 262.069 26.4193 262.414 26.018L263.744 27.334C263.277 27.8847 262.68 28.3233 261.952 28.65C261.233 28.9767 260.491 29.14 259.726 29.14C258.989 29.14 258.298 29.0093 257.654 28.748C257.019 28.4867 256.469 28.132 256.002 27.684C255.535 27.236 255.167 26.704 254.896 26.088C254.635 25.472 254.504 24.8093 254.504 24.1C254.504 23.3907 254.639 22.728 254.91 22.112C255.181 21.4867 255.549 20.95 256.016 20.502C256.483 20.054 257.033 19.6993 257.668 19.438C258.312 19.1767 258.998 19.046 259.726 19.046C260.51 19.046 261.271 19.214 262.008 19.55C262.745 19.8767 263.343 20.32 263.8 20.88L262.428 22.238C262.083 21.8087 261.677 21.482 261.21 21.258C260.743 21.0247 260.249 20.908 259.726 20.908C259.287 20.908 258.872 20.992 258.48 21.16C258.097 21.3187 257.766 21.5427 257.486 21.832C257.206 22.112 256.987 22.448 256.828 22.84C256.669 23.2227 256.59 23.6427 256.59 24.1C256.59 24.548 256.669 24.968 256.828 25.36C256.996 25.7427 257.22 26.074 257.5 26.354C257.789 26.634 258.125 26.858 258.508 27.026C258.9 27.1847 259.325 27.264 259.782 27.264ZM264.805 29V19.2L266.723 18.78V22.28C267.003 22.0467 267.311 21.8693 267.647 21.748C267.992 21.6267 268.365 21.566 268.767 21.566C269.607 21.566 270.297 21.8367 270.839 22.378C271.38 22.9193 271.651 23.6147 271.651 24.464V29H269.733V24.744C269.733 24.2867 269.593 23.918 269.313 23.638C269.042 23.358 268.678 23.218 268.221 23.218C267.903 23.218 267.614 23.2833 267.353 23.414C267.101 23.5353 266.891 23.7127 266.723 23.946V29H264.805ZM275.414 29.126C274.63 29.126 273.99 28.9207 273.496 28.51C273.001 28.09 272.754 27.5487 272.754 26.886C272.754 26.1953 273.02 25.654 273.552 25.262C274.084 24.87 274.816 24.674 275.75 24.674C276.048 24.674 276.347 24.6973 276.646 24.744C276.944 24.7907 277.238 24.8607 277.528 24.954V24.436C277.528 24.016 277.397 23.6987 277.136 23.484C276.874 23.2693 276.492 23.162 275.988 23.162C275.68 23.162 275.344 23.2133 274.98 23.316C274.625 23.4093 274.219 23.5587 273.762 23.764L273.062 22.35C273.631 22.0887 274.182 21.8927 274.714 21.762C275.255 21.6313 275.787 21.566 276.31 21.566C277.29 21.566 278.05 21.804 278.592 22.28C279.142 22.7467 279.418 23.4093 279.418 24.268V29H277.528V28.496C277.22 28.7107 276.893 28.8693 276.548 28.972C276.212 29.0747 275.834 29.126 275.414 29.126ZM274.588 26.844C274.588 27.124 274.709 27.348 274.952 27.516C275.194 27.6747 275.516 27.754 275.918 27.754C276.235 27.754 276.524 27.7167 276.786 27.642C277.056 27.558 277.304 27.4413 277.528 27.292V26.2C277.294 26.1067 277.047 26.0413 276.786 26.004C276.534 25.9573 276.268 25.934 275.988 25.934C275.549 25.934 275.204 26.018 274.952 26.186C274.709 26.3447 274.588 26.564 274.588 26.844ZM280.869 29V21.706H282.787V22.28C283.067 22.0467 283.375 21.8693 283.711 21.748C284.057 21.6267 284.43 21.566 284.831 21.566C285.671 21.566 286.362 21.8367 286.903 22.378C287.445 22.9193 287.715 23.6147 287.715 24.464V29H285.797V24.744C285.797 24.2867 285.657 23.918 285.377 23.638C285.107 23.358 284.743 23.218 284.285 23.218C283.968 23.218 283.679 23.2833 283.417 23.414C283.165 23.5353 282.955 23.7127 282.787 23.946V29H280.869ZM292.528 29.042C292.015 29.042 291.529 28.944 291.072 28.748C290.624 28.552 290.232 28.286 289.896 27.95C289.569 27.614 289.308 27.222 289.112 26.774C288.925 26.3167 288.832 25.8267 288.832 25.304C288.832 24.7907 288.93 24.31 289.126 23.862C289.322 23.4047 289.588 23.008 289.924 22.672C290.26 22.336 290.657 22.0747 291.114 21.888C291.571 21.692 292.061 21.594 292.584 21.594C292.948 21.594 293.293 21.6453 293.62 21.748C293.956 21.8507 294.269 21.9953 294.558 22.182V21.706H296.448V29C296.448 29.9613 296.135 30.7033 295.51 31.226C294.894 31.7487 294.003 32.01 292.836 32.01C292.276 32.01 291.735 31.954 291.212 31.842C290.699 31.73 290.227 31.5667 289.798 31.352L290.47 29.854C290.871 30.05 291.263 30.1947 291.646 30.288C292.029 30.3907 292.411 30.442 292.794 30.442C293.363 30.442 293.793 30.316 294.082 30.064C294.381 29.8213 294.53 29.462 294.53 28.986V28.384C294.241 28.5987 293.923 28.762 293.578 28.874C293.242 28.986 292.892 29.042 292.528 29.042ZM290.722 25.304C290.722 25.892 290.923 26.3913 291.324 26.802C291.735 27.2127 292.234 27.418 292.822 27.418C293.167 27.418 293.485 27.362 293.774 27.25C294.063 27.1287 294.315 26.9653 294.53 26.76V23.89C294.325 23.6847 294.073 23.526 293.774 23.414C293.475 23.2927 293.163 23.232 292.836 23.232C292.248 23.232 291.749 23.4327 291.338 23.834C290.927 24.2353 290.722 24.7253 290.722 25.304ZM304.497 28.09C304.049 28.454 303.587 28.72 303.111 28.888C302.644 29.056 302.122 29.14 301.543 29.14C300.992 29.14 300.474 29.042 299.989 28.846C299.513 28.65 299.098 28.384 298.743 28.048C298.398 27.712 298.122 27.3153 297.917 26.858C297.721 26.3913 297.623 25.892 297.623 25.36C297.623 24.8373 297.716 24.3473 297.903 23.89C298.099 23.4233 298.365 23.022 298.701 22.686C299.037 22.3407 299.434 22.07 299.891 21.874C300.358 21.678 300.852 21.58 301.375 21.58C301.888 21.58 302.364 21.6827 302.803 21.888C303.251 22.084 303.634 22.3547 303.951 22.7C304.278 23.0453 304.53 23.4607 304.707 23.946C304.894 24.422 304.987 24.94 304.987 25.5V26.004H299.555C299.686 26.4613 299.938 26.83 300.311 27.11C300.684 27.39 301.123 27.53 301.627 27.53C301.944 27.53 302.243 27.4787 302.523 27.376C302.803 27.2733 303.041 27.1287 303.237 26.942L304.497 28.09ZM301.333 23.162C300.894 23.162 300.516 23.2973 300.199 23.568C299.882 23.8293 299.662 24.184 299.541 24.632H303.111C302.99 24.2027 302.766 23.8527 302.439 23.582C302.122 23.302 301.753 23.162 301.333 23.162Z" fill="#382AE1"/>
<path d="M254 30.75H305.407V31.45H254V30.75Z" fill="#382AE1"/>
<circle cx="24" cy="24" r="24" fill="#DFE6FB"/>
<path d="M32.5741 15.1982C32.3967 15.0443 32.1611 14.975 31.9284 15.0081L20.581 16.6292C20.1816 16.6862 19.885 17.0282 19.885 17.4316V20.6738V26.9347C19.4049 26.655 18.8476 26.4939 18.253 26.4939C16.4593 26.4939 15 27.9532 15 29.747C15 31.5407 16.4593 33 18.253 33C20.0467 33 21.5061 31.5407 21.5061 29.747V21.3767L31.2325 19.9873V25.3136C30.7524 25.0339 30.1951 24.8728 29.6005 24.8728C27.8068 24.8728 26.3475 26.3322 26.3475 28.1259C26.3475 29.9196 27.8068 31.3789 29.6005 31.3789C31.3942 31.3789 32.8535 29.9196 32.8535 28.1259V19.0527V15.8105C32.8536 15.5755 32.7516 15.3522 32.5741 15.1982Z" fill="#717FA6"/>
</g>
<defs>
<clipPath id="clip0_0_179">
<rect width="306" height="48" fill="white"/>
</clipPath>
<clipPath id="clip1_0_179">
<rect width="92" height="48" fill="white" transform="translate(68)"/>
</clipPath>
</defs>
</svg>
